# xmcd
#
# Track frame offsets: 
#        150
#        12691
#        22950
#        33165
#        43695
#        54721
#        66618
#        80089
#        94609
#        108452
#        119486
#        128370
#
# Disc length: 1865 seconds
#
# Revision: 2
# Processed by: cddbd v1.5.2PL0 Copyright (c) Steve Scherf et al.
# Submitted via: ExactAudioCopyFreeDBPlugin 1.0
#
DISCID=a107470c
DTITLE=Anna King - Back to Soul
DYEAR=2006
DGENRE=Soul
TTITLE0=Make Up Your Mind
TTITLE1=Come on Home
TTITLE2=Sittin' in the Dark
TTITLE3=That's When I Cry
TTITLE4=I Found You
TTITLE5=I Don't Want to Cry
TTITLE6=If Somebody Told You
TTITLE7=Night Time is the Right Time
TTITLE8=Tennessee Waltz
TTITLE9=Come and Get These Memories
TTITLE10=If You Don't Think
TTITLE11=Baby Baby Baby
EXTD=YEAR: 1964
EXTT0=
EXTT1=
EXTT2=
EXTT3=
EXTT4=
EXTT5=
EXTT6=
EXTT7=
EXTT8=
EXTT9=
EXTT10=
EXTT11=
PLAYORDER=
